<?xml version="1.0" encoding="UTF-8"?>
<svg id="Layer_1" data-name="Layer 1" xmlns="http://www.w3.org/2000/svg" viewBox="0 0 512 512">
  <defs>
    <style>
      .cls-1 {
        fill: #67b6d0;
      }

      .cls-2 {
        fill: #003b71;
      }
    </style>
  </defs>
  <path class="cls-1" d="m302.3,160.75c-19.99,10.41-34.03,30.91-39.58,58.95,2.53,12.69,3.82,26.82,3.82,42.42,0,64.14-29.93,110.56-84.9,110.56-64.14,0-100.79-47.64-100.79-122.78,0-67.81,34.82-110.56,87.35-110.56,13.06,0,24.87,1.78,35.41,5.25,10.53-17.13,23.72-31.44,39.18-42.71-19.55-9.78-42.01-15.06-66.65-15.06-92.24,0-151.49,66.58-151.49,174.7,0,97.12,64.75,163.7,151.49,163.7s146.6-65.97,146.6-175.92c0-33.85-7.29-63.82-20.43-88.53Z"/>
  <path class="cls-2" d="m340.75,86.8c-92.24,0-151.49,66.58-151.49,174.7,0,33.9,7.91,64.06,21.87,88.98,20.72-10.45,33.78-32.36,38.26-60.82-2.59-12.17-3.93-25.47-3.93-39.77,0-67.81,34.82-110.56,87.35-110.56,64.14,0,98.34,42.15,98.34,122.78,0,64.14-29.93,110.56-84.9,110.56-13.64,0-26.02-2.17-37.08-6.29-9.9,17.31-22.39,31.73-37.19,42.91,20.39,10.29,43.65,15.91,68.77,15.91,88.57,0,146.6-65.97,146.6-175.92,0-97.12-59.86-162.48-146.6-162.48Z"/>
</svg>