<?xml version="1.0" encoding="UTF-8"?>
<svg id="Layer_2" data-name="Layer 2" xmlns="http://www.w3.org/2000/svg" viewBox="0 0 300 177.13">
  <defs>
    <style>
      .cls-1 {
        fill: #575e75;
      }

      .cls-2 {
        fill: #0052a1;
      }
    </style>
  </defs>
  <g id="Layer_1-2" data-name="Layer 1">
    <g>
      <path class="cls-1" d="M268.86,42.64l-10.84-14.42c-2.07-2.78-5.36-4.49-8.89-4.49h-53.62v-12.43c0-6.25-5.02-11.3-11.17-11.3H11.17C5.02,0,0,5.09,0,11.3v124.36c0,6.18,5.02,11.23,11.17,11.23h18.15c1.61,16.94,15.86,30.24,33.19,30.24s31.53-13.3,33.19-30.24h108.61c1.61,16.94,15.86,30.24,33.19,30.24s31.53-13.3,33.19-30.24h18.19c6.15,0,11.13-5.01,11.13-11.19-.06-33.38-11.08-66.44-31.14-93.06ZM291.24,125.52h-6.3l.04-21.73h3.03c1.61,7.17,2.7,14.44,3.22,21.73ZM11.18,8.4h173.18c1.58,0,2.86,1.32,2.86,2.94v84.36c-.45-.15-.89-.27-1.39-.27H8.32V11.33c0-1.62,1.28-2.93,2.86-2.93ZM62.51,168.76c-13.8,0-25.01-11.26-25.01-25.13s11.2-25.13,25.01-25.13,25.01,11.26,25.01,25.13c-.01,13.87-11.26,25.13-25.01,25.13ZM95.39,138.53c-2.48-16.01-16.27-28.32-32.88-28.32s-30.4,12.31-32.88,28.32H11.18c-1.58,0-2.86-1.28-2.86-2.87v-31.9h177.44c.48,0,.94-.12,1.39-.26v35.03h-91.77ZM237.44,168.76c-13.8,0-25.01-11.26-25.01-25.13s11.2-25.13,25.01-25.13c13.81.02,25.01,11.32,25.01,25.18s-11.2,25.08-25.01,25.08ZM288.81,138.53h-18.48c-2.48-16.01-16.27-28.32-32.88-28.32s-30.4,12.31-32.88,28.32h-9.08V32.13h53.62c.89,0,1.68.41,2.21,1.09l10.87,14.46c10.76,14.31,18.79,30.59,23.7,47.76h-.94c-4.61,0-8.36,3.76-8.36,8.4v21.7c0,4.63,3.75,8.4,8.36,8.4h6.6c0,.6.04,1.2.04,1.81.03,1.5-1.24,2.78-2.78,2.78Z"/>
      <path class="cls-1" d="M243.87,44.24c-1.01-1.39-2.67-2.26-4.41-2.26h-27.22c-2.97,0-5.42,2.44-5.42,5.42v28.07c0,2.97,2.44,5.42,5.42,5.42h47.53c2.03,0,3.91-1.13,4.82-2.97.94-1.83.75-3.98-.45-5.64l-20.27-28.04ZM215.23,72.55v-22.17h22.75l16.05,22.17h-38.8Z"/>
      <path class="cls-1" d="M220.02,93.17h-7.97c-2.31,0-4.21,1.85-4.21,4.1s1.9,4.1,4.21,4.1h7.97c2.31,0,4.21-1.85,4.21-4.1s-1.9-4.1-4.21-4.1Z"/>
      <path class="cls-1" d="M62.46,131.06c-6.79,0-12.29,5.54-12.29,12.28s5.54,12.29,12.29,12.29,12.29-5.54,12.29-12.29-5.54-12.28-12.29-12.28ZM62.46,147.48c-2.25,0-4.1-1.84-4.1-4.09s1.85-4.1,4.1-4.1,4.1,1.85,4.1,4.1-1.85,4.09-4.1,4.09Z"/>
      <path class="cls-1" d="M237.54,131.06c-6.79,0-12.29,5.54-12.29,12.28s5.54,12.29,12.29,12.29,12.29-5.54,12.29-12.29c.06-6.74-5.48-12.28-12.29-12.28ZM237.54,147.48c-2.25,0-4.1-1.84-4.1-4.09s1.85-4.1,4.1-4.1,4.1,1.85,4.1,4.1c.01,2.25-1.8,4.09-4.1,4.09Z"/>
      <path class="cls-1" d="M170.95,119.8h-65.4c-2.3,0-4.18,2.07-4.18,4.6s1.89,4.61,4.18,4.61h65.35c2.3,0,4.18-2.08,4.18-4.61.06-2.53-1.83-4.6-4.14-4.6Z"/>
      <path class="cls-2" d="M44.1,43.6v-4.41h-19.25v5.61h9.72l-10,11.51v4.46h19.93v-5.66h-10.41l10.01-11.51Z"/>
      <path class="cls-2" d="M56.13,29.85c-.85-.73-1.96-1.1-3.35-1.1s-2.5.39-3.35,1.16-1.28,1.72-1.28,2.86.43,2.1,1.28,2.87,1.97,1.15,3.35,1.15,2.53-.39,3.37-1.17c.84-.78,1.26-1.78,1.26-2.97s-.43-2.08-1.28-2.81h0Z"/>
      <path class="cls-2" d="M81.57,40.2c-1.61-.92-3.4-1.37-5.36-1.37s-3.55.39-4.84,1.19c-.58.36-1.09.81-1.54,1.33v-2.17h-7.22v29.3h7.57v-9.64c.4.41.83.76,1.32,1.06,1.3.81,2.87,1.22,4.7,1.22,1.96,0,3.75-.45,5.36-1.36,1.61-.9,2.88-2.19,3.82-3.86.94-1.67,1.41-3.65,1.41-5.93s-.47-4.26-1.41-5.91c-.94-1.66-2.22-2.95-3.82-3.87h0ZM78.54,52.76c-.41.77-.96,1.36-1.63,1.75-.68.4-1.44.6-2.29.6s-1.61-.2-2.29-.6c-.68-.39-1.22-.98-1.63-1.75-.41-.77-.62-1.7-.62-2.79s.21-2.01.62-2.79c.41-.77.96-1.35,1.63-1.75.68-.4,1.44-.6,2.29-.6s1.61.2,2.29.6c.68.4,1.22.98,1.63,1.75.41.77.62,1.7.62,2.79s-.21,2.02-.62,2.79Z"/>
      <path class="cls-2" d="M109.27,40.2c-1.61-.92-3.39-1.37-5.36-1.37s-3.55.39-4.84,1.19c-.58.36-1.09.81-1.54,1.33v-2.17h-7.22v29.3h7.57v-9.64c.4.41.83.76,1.32,1.06,1.3.81,2.87,1.22,4.7,1.22,1.96,0,3.75-.45,5.36-1.36,1.61-.9,2.89-2.19,3.83-3.86.94-1.67,1.41-3.65,1.41-5.93s-.47-4.26-1.41-5.91c-.94-1.66-2.22-2.95-3.83-3.87h0ZM106.24,52.76c-.41.77-.96,1.36-1.63,1.75-.68.4-1.44.6-2.29.6s-1.61-.2-2.29-.6c-.68-.39-1.22-.98-1.63-1.75-.41-.77-.62-1.7-.62-2.79s.21-2.01.62-2.79c.41-.77.96-1.35,1.63-1.75.68-.4,1.44-.6,2.29-.6s1.61.2,2.29.6c.68.4,1.22.98,1.63,1.75.41.77.62,1.7.62,2.79s-.21,2.02-.62,2.79Z"/>
      <path class="cls-2" d="M134.36,40.12c-1.75-.86-3.69-1.29-5.82-1.29-2.26,0-4.29.47-6.1,1.41-1.81.94-3.22,2.26-4.25,3.94-1.02,1.69-1.53,3.6-1.53,5.76s.52,4.06,1.58,5.75c1.05,1.69,2.52,3.01,4.42,3.98,1.9.97,4.12,1.46,6.68,1.46,2.07,0,3.86-.3,5.38-.9,1.52-.6,2.79-1.46,3.83-2.6l-3.99-4.14c-.75.63-1.5,1.1-2.25,1.41-.76.31-1.67.46-2.73.46-1.14,0-2.13-.21-2.95-.62-.82-.42-1.45-1-1.89-1.78-.19-.32-.33-.69-.43-1.07h15.68c.02-.29.05-.61.08-.96.02-.34.04-.65.04-.91,0-2.39-.52-4.42-1.56-6.09-1.04-1.68-2.43-2.94-4.19-3.8h0ZM124.18,47.9c.09-.51.24-.98.45-1.41.37-.73.89-1.29,1.58-1.69.68-.4,1.47-.6,2.37-.6s1.69.2,2.37.6c.68.4,1.21.96,1.59,1.67.23.43.38.91.46,1.43h-8.83,0Z"/>
      <path class="cls-2" d="M165.09,39.19h-8.01l-3.98,5.45-3.83-5.45h-8.53l7.99,10.78-8.22,10.8h8.21l4.13-5.65,3.88,5.65h8.65l-8.25-11.06,7.97-10.52Z"/>
      <path class="cls-2" d="M174.73,54.25c-.24-.56-.56-1.05-.99-1.48-.42-.42-.92-.75-1.49-.98-.57-.24-1.19-.36-1.85-.36s-1.28.12-1.85.36c-.57.24-1.07.57-1.49,1-.43.43-.76.93-1,1.5-.24.56-.36,1.17-.36,1.83s.12,1.26.35,1.83c.24.57.56,1.06.99,1.49.43.43.92.77,1.49,1.01s1.18.35,1.85.35,1.28-.11,1.85-.35,1.07-.58,1.5-1.01c.43-.43.76-.93,1-1.5.24-.57.36-1.18.36-1.85s-.12-1.27-.35-1.84ZM173.74,57.55c-.16.41-.39.76-.67,1.06l-1.07-1.64c.1-.05.19-.1.28-.17.4-.31.6-.77.6-1.37,0-.56-.2-1.01-.6-1.35-.4-.33-.97-.49-1.69-.49h-2.3v5.07h1.63v-1.38h.62l.9,1.38h1.6s-.04.05-.06.07c-.33.33-.71.6-1.15.78-.44.19-.92.29-1.44.29s-.99-.09-1.43-.28c-.44-.19-.83-.45-1.15-.78-.32-.33-.57-.72-.75-1.17-.18-.45-.27-.94-.27-1.45s.09-1,.27-1.44c.18-.44.43-.83.76-1.17.33-.33.71-.6,1.15-.78.44-.18.92-.28,1.45-.28s1.02.09,1.45.27c.44.19.82.44,1.13.77.32.33.57.72.75,1.16.18.45.27.93.27,1.45s-.09,1.01-.27,1.46h0ZM169.92,56.11v-1.36h.57c.24,0,.43.06.56.18.14.11.21.28.21.5s-.07.38-.21.5c-.14.12-.32.18-.56.18h-.57Z"/>
      <path class="cls-2" d="M52.1,58.67c-.86,0-1.56-.7-1.56-1.56v-1.27c0-.86.7-1.56,1.56-1.56.54,0,.98-.44.98-.98v-.15c0-.53-.44-.97-.98-.97-.86,0-1.56-.7-1.56-1.56v-1.29c0-.86.7-1.56,1.56-1.56.54,0,.98-.44.98-.97v-.15c0-.54-.44-.98-.98-.98-.86,0-1.56-.7-1.56-1.56v-1.28c0-.86.7-1.56,1.56-1.56.54,0,.98-.44.98-.97v-.15c0-.54-.44-.98-.98-.98h-3.93v21.58h3.93c.54,0,.98-.44.98-.98v-.15c0-.53-.44-.97-.98-.97v.02Z"/>
      <path class="cls-2" d="M55.03,39.19v1.75c0,.82-.67,1.49-1.5,1.49h-.11c-.51,0-.92.42-.92.92v.26c0,.51.41.92.92.92h.11c.83,0,1.5.67,1.5,1.5v1.4c0,.83-.67,1.5-1.5,1.5h-.11c-.51,0-.92.42-.92.92v.26c0,.51.41.92.92.92.89,0,1.62.73,1.62,1.62v1.28c0,.83-.67,1.49-1.5,1.49h-.11c-.51,0-.92.42-.92.92v.27c0,.5.41.91.92.91h.11c.83,0,1.5.68,1.5,1.5v1.74h2.38v-21.57h-2.38Z"/>
    </g>
  </g>
</svg>