<?xml version="1.0" encoding="UTF-8"?>
<svg id="Layer_2" data-name="Layer 2" xmlns="http://www.w3.org/2000/svg" xmlns:xlink="http://www.w3.org/1999/xlink" viewBox="0 0 200 176.01">
  <defs>
    <style>
      .cls-1 {
        fill: none;
      }

      .cls-2 {
        fill: #575e75;
      }

      .cls-3 {
        fill: #0052a1;
      }

      .cls-4 {
        clip-path: url(#clippath);
      }
    </style>
    <clipPath id="clippath">
      <rect class="cls-1" y=".01" width="200" height="176"/>
    </clipPath>
  </defs>
  <g id="Layer_1-2" data-name="Layer 1">
    <g class="cls-4">
      <g>
        <path class="cls-3" d="M116.8,12.75l3.66-2.58-1.24-1.73-1.1.77-.78-1.08c-.17-.24-.49-.29-.72-.13l-.61.44c-.24.17-.29.49-.12.73l.77,1.07-1.1.78,1.24,1.73Z"/>
        <path class="cls-3" d="M121.34,9.79l3.89-2.2-1.07-1.85-1.16.65-.66-1.15c-.14-.25-.46-.33-.71-.19l-.65.37c-.25.14-.34.46-.2.71l.66,1.15-1.16.66,1.07,1.85h0Z"/>
        <path class="cls-3" d="M126.12,7.2l4.17-1.63-.8-1.98-1.24.49-.49-1.24c-.11-.27-.4-.4-.68-.3l-.7.27c-.27.11-.41.42-.3.69l.49,1.23-1.24.48.8,1.99h0Z"/>
        <path class="cls-3" d="M112.31,13.95l-.99.91,1.46,1.55,3.3-3.03-1.46-1.56-.99.91-.91-.97c-.2-.21-.52-.22-.74-.03l-.55.51c-.21.2-.23.53-.03.74l.9.97Z"/>
        <path class="cls-3" d="M108.53,18.1l-.88,1.02,1.63,1.37,2.91-3.4-1.63-1.37-.88,1.02-1.02-.86c-.22-.18-.55-.15-.74.06l-.49.57c-.19.22-.16.55.06.75l1.01.84h0Z"/>
        <path class="cls-3" d="M104.09,22.04l1.1.73-.75,1.12,1.78,1.17,2.5-3.72-1.78-1.17-.75,1.11-1.11-.73c-.24-.16-.56-.1-.72.14l-.42.62c-.16.25-.1.57.15.73h0Z"/>
        <path class="cls-3" d="M101.36,27.3l1.2.54-.56,1.21,1.94.88,1.88-4.07-1.94-.88-.56,1.22-1.22-.55c-.26-.12-.57,0-.69.26l-.32.69c-.12.26,0,.57.26.7h0Z"/>
        <path class="cls-3" d="M99.42,32.75l.48.14h-2.26c-3.08,0-5.64,2.05-5.96,4.58-.15,1.23.12,2.39.71,3.36.88,1.45,1.54,3.01,1.86,4.64l.51-6.03c.21-2.51,2.27-4.41,4.79-4.41s4.58,1.9,4.79,4.41l.53,6.28c.23-1.81.86-3.55,1.71-5.2.49-.96.7-2.09.5-3.27-.34-2.02-2.14-3.7-4.15-4.2l.7-2.34-2.05-.59-.38,1.29-1.28-.37c-.27-.08-.57.07-.65.35l-.21.73c-.08.28.07.57.35.65l.02-.02Z"/>
        <path class="cls-3" d="M136.48,4.16l4.46-.31-.17-2.13-1.33.09-.1-1.33c-.02-.29-.27-.5-.56-.48l-.75.05c-.29.03-.51.28-.49.57l.1,1.32-1.33.08.17,2.14h0Z"/>
        <path class="cls-3" d="M130.81,5.46l4.35-1.06-.52-2.07-1.3.31-.32-1.29c-.07-.28-.35-.45-.63-.38l-.73.18c-.28.06-.46.35-.38.63l.32,1.28-1.3.32.52,2.08Z"/>
        <path class="cls-3" d="M79.75,11.29l1.13-1.81-1.15-.7.69-1.12c.15-.25.07-.57-.18-.72l-.64-.39c-.24-.15-.57-.08-.71.17l-.7,1.13-1.15-.7-1.13,1.82,3.83,2.32h0Z"/>
        <path class="cls-3" d="M75.95,6.72l-1.21-.57.58-1.19c.12-.26.01-.57-.24-.7l-.68-.32c-.26-.13-.57-.02-.69.24l-.58,1.19-1.21-.57-.93,1.92,4.04,1.92.93-1.92h-.01Z"/>
        <path class="cls-3" d="M70.73,4.36l-1.28-.4.4-1.26c.09-.28-.07-.57-.34-.66l-.71-.22c-.27-.09-.57.06-.65.34l-.41,1.27-1.28-.4-.66,2.03,4.27,1.33.66-2.03h0Z"/>
        <path class="cls-3" d="M84,14.66l1.35-1.65-1.04-.84.83-1.02c.18-.23.15-.57-.08-.74l-.59-.48c-.22-.17-.55-.14-.73.09l-.84,1.03-1.05-.84-1.35,1.65,3.5,2.8h0Z"/>
        <path class="cls-3" d="M87.78,18.49l1.53-1.48-.94-.95.95-.92c.21-.19.21-.53,0-.74l-.53-.54c-.2-.21-.53-.21-.74-.01l-.96.93-.94-.95-1.53,1.48,3.14,3.2v-.02Z"/>
        <path class="cls-3" d="M91.14,22.84l1.69-1.3-.82-1.05,1.05-.81c.23-.17.27-.51.1-.74l-.46-.59c-.18-.22-.5-.26-.73-.09l-1.06.81-.82-1.05-1.69,1.29,2.75,3.54h0Z"/>
        <path class="cls-3" d="M93.75,27.54l1.88-1.01-.64-1.17,1.16-.62c.26-.14.35-.46.21-.72l-.36-.66c-.14-.25-.45-.34-.71-.2l-1.17.63-.64-1.18-1.88,1.01,2.15,3.94v-.02Z"/>
        <path class="cls-3" d="M94.1,28.29l1.58,4.2,2-.73-.47-1.26,1.24-.45c.27-.1.41-.41.31-.68l-.27-.7c-.1-.27-.4-.41-.67-.31l-1.25.46-.47-1.26-2,.73h0Z"/>
        <path class="cls-3" d="M59.54,1.93h-1.34V.61c.01-.3-.21-.53-.51-.53h-.75c-.29,0-.52.23-.52.51v1.34h-1.35l-.02,2.13h4.48l.02-2.13Z"/>
        <path class="cls-3" d="M65.65,2.87l-1.32-.23.24-1.3c.05-.29-.14-.56-.43-.61l-.74-.13c-.28-.05-.55.14-.6.42l-.23,1.31-1.32-.22-.38,2.1,4.41.75.38-2.1h0Z"/>
        <path class="cls-2" d="M105.36,62.27l-1.92-22.75c-.1-1.1-.65-2.05-1.45-2.7v9.87c0,.75-.61,1.36-1.35,1.36h-2.14c-.74,0-1.35-.61-1.35-1.36v-9.87c-.8.65-1.35,1.6-1.45,2.7l-1.92,22.75c-.09.99.69,1.84,1.69,1.84h8.23c.99,0,1.77-.85,1.69-1.84h0ZM100.84,60.61c-.29.29-.7.43-1.2.43s-.89-.14-1.19-.42c-.3-.27-.46-.61-.46-1.02s.15-.74.46-1.01c.3-.28.7-.42,1.19-.42s.89.14,1.19.39c.3.26.46.59.46,1.01s-.15.77-.45,1.05h0Z"/>
        <path class="cls-3" d="M98.06,36.25s-.02.04-.02.07v10.37c0,.24.2.44.43.44h2.14c.24,0,.43-.2.43-.44v-10.37s0-.05-.01-.07c-.46-.19-.96-.3-1.49-.3s-1.03.11-1.49.3h0Z"/>
        <path class="cls-3" d="M92.83,62.19l.93-11.06c-.15-.26-.23-.56-.23-.88v-2.7c0-2.02-.65-4.11-1.94-6.24-.72-1.19-1.01-2.57-.83-3.96.24-1.94,1.52-3.58,3.33-4.52C83.02,4.67,58.27,5.2,54.74,5.43c-6.66.02-13.09,1.41-19.42,3.85-10.39,3.99-19.33,11.04-25.63,20.24C3.38,38.71,0,49.6,0,60.75c0,23.05,15,40.09,30,55.13l55.08,53.44c1.89,2.13,4.21,3.82,6.8,4.97,1,.45,2.04.81,3.1,1.08v-110.38c-.56-.1-1.08-.38-1.47-.8-.49-.54-.74-1.27-.68-2h0Z"/>
        <path class="cls-3" d="M190.41,29.42c-6.29-9.23-15.25-16.31-25.66-20.32-6.41-2.46-13.19-3.68-19.99-3.64,0,0-29.2-1.58-39.8,27.41,1.57.92,2.75,2.46,3.05,4.21.23,1.34.02,2.67-.59,3.86-1.16,2.24-1.72,4.3-1.72,6.3v3c0,.39-.13.75-.35,1.06l.92,10.89c.07.73-.18,1.46-.68,2-.35.38-.81.64-1.3.76v110.6c1.39-.31,2.75-.76,4.05-1.36,2.58-1.19,4.87-2.91,6.74-5.06l54.92-53.25c15-15.04,30-32.18,30-55.13.05-11.18-3.29-22.11-9.59-31.33Z"/>
        <path class="cls-3" d="M101.42,65.4c0,.64-.52,1.16-1.16,1.16h-.09c-.39,0-.71.32-.71.72v.2c0,.4.32.72.71.72.69,0,1.25.56,1.25,1.26v.99c0,.64-.52,1.17-1.16,1.17h-.09c-.39,0-.71.31-.71.71v.21c0,.39.32.72.71.72h.09c.64,0,1.16.52,1.16,1.16v1.07c0,.64-.52,1.17-1.16,1.17h-.09c-.39,0-.71.31-.71.71v.21c0,.39.32.72.71.72h.09c.64,0,1.16.52,1.16,1.16v1.09c0,.65-.52,1.17-1.16,1.17h-.09c-.39,0-.71.32-.71.72v.2c0,.39.32.72.71.72.69,0,1.25.56,1.25,1.25v1c0,.64-.52,1.16-1.16,1.16h-.09c-.39,0-.71.32-.71.72v.21c0,.39.32.71.71.71h.09c.64,0,1.16.53,1.16,1.17v1.08c0,.64-.52,1.16-1.16,1.16h-.09c-.39,0-.71.32-.71.72v.2c0,.39.32.72.71.72h.09c.64,0,1.16.52,1.16,1.17v.99c0,.7-.56,1.26-1.25,1.26-.39,0-.71.31-.71.71v.21c0,.39.32.71.71.71h.09c.64,0,1.16.53,1.16,1.17v1.09c0,.64-.52,1.17-1.16,1.17h-.09c-.39,0-.71.32-.71.71v.21c0,.39.32.72.71.72h.09c.64,0,1.16.52,1.16,1.16v1.07c0,.64-.52,1.17-1.16,1.17h-.09c-.39,0-.71.32-.71.71v.21c0,.39.32.72.71.72h.09c.64,0,1.16.52,1.16,1.16v1c0,.69-.56,1.25-1.25,1.25-.39,0-.71.32-.71.72v.21c0,.39.32.71.71.71h.09c.64,0,1.16.52,1.16,1.17v1.07c0,.64-.52,1.16-1.16,1.16h-.09c-.39,0-.71.32-.71.72v.23c0,.39.32.71.71.71h.09c.64,0,1.16.53,1.16,1.17v1.07c0,.64-.52,1.16-1.16,1.16h-.09c-.39,0-.71.32-.71.72v.21c0,.39.32.71.71.71.69,0,1.25.56,1.25,1.26v.99c0,.65-.52,1.17-1.16,1.17h-.09c-.39,0-.71.32-.71.72v.2c0,.39.32.72.71.72h.09c.64,0,1.16.52,1.16,1.16v1.07c0,.65-.52,1.17-1.16,1.17h-.09c-.39,0-.71.32-.71.72v.2c0,.39.32.72.71.72h.09c.64,0,1.16.52,1.16,1.16v1.1c0,.64-.52,1.16-1.16,1.16h-.09c-.39,0-.71.32-.71.72v.2c0,.4.32.72.71.72.69,0,1.25.56,1.25,1.25v1c0,.64-.52,1.17-1.16,1.17h-.09c-.39,0-.71.31-.71.71v.21c0,.39.32.71.71.71h.09c.64,0,1.16.53,1.16,1.17v1.08c0,.64-.52,1.16-1.16,1.16h-.09c-.39,0-.71.32-.71.72v.21c0,.39.32.71.71.71h.09c.64,0,1.16.53,1.16,1.17v.99c0,.7-.56,1.26-1.25,1.26-.39,0-.71.32-.71.71v.21c0,.39.32.72.71.72h.09c.64,0,1.16.52,1.16,1.16v1.09c0,.65-.52,1.17-1.16,1.17h-.09c-.39,0-.71.32-.71.72v.2c0,.39.32.72.71.72h.09c.64,0,1.16.52,1.16,1.16v1.07c0,.65-.52,1.17-1.16,1.17h-.09c-.39,0-.71.32-.71.72v.2c0,.39.32.72.71.72h.09c.64,0,1.16.52,1.16,1.16v1c0,.69-.56,1.26-1.25,1.26-.39,0-.71.31-.71.71v.21c0,.39.32.71.71.71h.09c.64,0,1.16.53,1.16,1.17v1.09c0,.64-.52,1.17-1.16,1.17h-.09c-.39,0-.71.31-.71.71v.21c0,.39.32.72.71.72h.09c.64,0,1.16.52,1.16,1.16v.53c.62-.05,1.24-.12,1.84-.22v-110.74h-1.84v.36Z"/>
        <path class="cls-3" d="M99.14,175.16c-.67,0-1.21-.54-1.21-1.21v-.99c0-.68.54-1.22,1.21-1.22.42,0,.76-.33.76-.76v-.11c0-.42-.34-.76-.76-.76-.67,0-1.21-.54-1.21-1.21v-1.01c0-.67.54-1.21,1.21-1.21.42,0,.76-.34.76-.76v-.12c0-.42-.34-.76-.76-.76-.67,0-1.21-.53-1.21-1.21v-.98c0-.67.53-1.2,1.18-1.21h.02c.42,0,.76-.34.76-.76v-.12c0-.42-.34-.76-.76-.76h-.02c-.65-.01-1.18-.54-1.18-1.2v-.99c0-.68.54-1.21,1.21-1.21.42,0,.76-.34.76-.76v-.12c0-.42-.34-.76-.76-.76-.67,0-1.21-.54-1.21-1.21v-1.01c0-.67.54-1.21,1.21-1.21.42,0,.76-.34.76-.76v-.11c0-.43-.34-.76-.76-.76-.67,0-1.21-.54-1.21-1.21v-.99c0-.68.54-1.21,1.21-1.21.42,0,.76-.34.76-.76v-.12c0-.43-.34-.77-.76-.77-.67,0-1.21-.54-1.21-1.21v-.99c0-.67.54-1.21,1.21-1.21.42,0,.76-.34.76-.76v-.12c0-.42-.34-.76-.76-.76-.67,0-1.21-.54-1.21-1.21v-1c0-.67.54-1.21,1.21-1.21.42,0,.76-.34.76-.76v-.12c0-.42-.34-.76-.76-.76-.67,0-1.21-.54-1.21-1.21v-1c0-.66.53-1.19,1.18-1.2h.02c.42,0,.76-.34.76-.76v-.12c0-.42-.34-.76-.76-.76h-.02c-.65-.02-1.18-.55-1.18-1.21v-.99c0-.67.54-1.21,1.21-1.21.42,0,.76-.33.76-.76v-.11c0-.42-.34-.76-.76-.76-.67,0-1.21-.55-1.21-1.21v-1.01c0-.6.43-1.09.99-1.19h.21c.42,0,.76-.33.76-.76v-.14c0-.42-.34-.76-.76-.76-.67,0-1.21-.53-1.21-1.21v-.97c0-.67.54-1.21,1.21-1.21.42,0,.76-.34.76-.76v-.14c0-.42-.34-.76-.76-.76h-.21c-.57-.1-1-.59-1-1.19v-1c0-.67.54-1.21,1.21-1.21.42,0,.76-.34.76-.76v-.12c0-.42-.34-.76-.76-.76-.67,0-1.21-.54-1.21-1.21v-.99c0-.66.53-1.19,1.18-1.2h.02c.42,0,.76-.34.76-.76v-.12c0-.42-.34-.76-.76-.76h-.02c-.65-.02-1.18-.55-1.18-1.2v-1c0-.67.54-1.21,1.21-1.21.42,0,.76-.34.76-.76v-.12c0-.42-.34-.76-.76-.76-.67,0-1.21-.54-1.21-1.21v-1c0-.67.54-1.21,1.21-1.21.42,0,.76-.34.76-.76v-.12c0-.42-.34-.76-.76-.76-.67,0-1.21-.54-1.21-1.21v-.99c0-.67.54-1.21,1.21-1.21.42,0,.76-.34.76-.76v-.12c0-.43-.34-.76-.76-.76-.67,0-1.21-.54-1.21-1.21v-.99c0-.67.54-1.21,1.21-1.21.42,0,.76-.34.76-.76v-.12c0-.42-.34-.76-.76-.76-.67,0-1.21-.54-1.21-1.21v-1.01c0-.67.54-1.21,1.21-1.21.42,0,.76-.34.76-.76v-.11c0-.42-.34-.76-.76-.76-.67,0-1.21-.54-1.21-1.21v-1c0-.66.53-1.2,1.18-1.2h.02c.42,0,.76-.34.76-.76v-.12c0-.42-.34-.77-.76-.77h-.02c-.65-.01-1.18-.54-1.18-1.2v-.99c0-.67.54-1.21,1.21-1.21.42,0,.76-.34.76-.76v-.12c0-.42-.34-.76-.76-.76-.67,0-1.21-.54-1.21-1.21v-1c0-.67.54-1.21,1.21-1.21.37,0,.66-.27.73-.62h-3.78v110.58c1.25.25,2.52.38,3.81.39v-.09c0-.42-.34-.76-.76-.76h.01Z"/>
      </g>
    </g>
  </g>
</svg>