<?xml version="1.0" encoding="UTF-8"?>
<svg id="Layer_2" data-name="Layer 2" xmlns="http://www.w3.org/2000/svg" xmlns:xlink="http://www.w3.org/1999/xlink" viewBox="0 0 760 130">
  <defs>
    <style>
      .cls-1 {
        fill: none;
      }

      .cls-2 {
        clip-path: url(#clippath-1);
      }

      .cls-3 {
        fill: #fff;
      }

      .cls-4 {
        fill: #575e75;
      }

      .cls-5 {
        clip-path: url(#clippath);
      }
    </style>
    <clipPath id="clippath">
      <rect class="cls-1" x="5" y="5" width="750" height="120" rx="10" ry="10"/>
    </clipPath>
    <clipPath id="clippath-1">
      <rect class="cls-1" x="481" y="52" width="250" height="66"/>
    </clipPath>
  </defs>
  <g id="Layer_1-2" data-name="Layer 1">
    <g>
      <g class="cls-5">
        <g>
          <rect class="cls-3" x="5" y="5" width="750" height="40"/>
          <rect class="cls-4" x="5" y="45" width="750" height="80"/>
          <g class="cls-2">
            <g>
              <path class="cls-3" d="M513.44,76.66v-7.33h-31.97v9.32h16.15l-16.61,19.11v7.41h33.1v-9.39h-17.29l16.62-19.12Z"/>
              <path class="cls-3" d="M533.42,53.82c-1.41-1.21-3.26-1.82-5.56-1.82s-4.15.64-5.56,1.92c-1.41,1.28-2.12,2.86-2.12,4.76s.71,3.48,2.12,4.76c1.41,1.28,3.26,1.92,5.56,1.92s4.21-.65,5.59-1.95c1.39-1.3,2.09-2.94,2.09-4.93s-.71-3.45-2.12-4.67h0Z"/>
              <path class="cls-3" d="M575.67,71.01c-2.67-1.52-5.64-2.28-8.9-2.28s-5.9.66-8.04,1.98c-.96.59-1.8,1.34-2.55,2.2v-3.6h-11.98v48.67h12.58v-16.03c.66.69,1.39,1.28,2.19,1.77,2.16,1.34,4.77,2.02,7.81,2.02,3.26,0,6.23-.75,8.9-2.25,2.67-1.5,4.79-3.64,6.35-6.41,1.57-2.78,2.35-6.06,2.35-9.85s-.78-7.07-2.35-9.82c-1.57-2.76-3.69-4.89-6.35-6.41h0ZM570.64,91.88c-.69,1.28-1.59,2.25-2.71,2.91-1.12.66-2.4.99-3.81.99s-2.68-.33-3.81-.99c-1.12-.66-2.03-1.63-2.71-2.91-.69-1.28-1.03-2.82-1.03-4.63s.34-3.35,1.03-4.63c.69-1.28,1.59-2.25,2.71-2.91,1.12-.66,2.4-.99,3.81-.99s2.68.33,3.81.99c1.12.66,2.03,1.63,2.71,2.91.69,1.28,1.03,2.82,1.03,4.63s-.34,3.35-1.03,4.63Z"/>
              <path class="cls-3" d="M621.68,71.01c-2.67-1.52-5.64-2.28-8.9-2.28s-5.9.66-8.04,1.98c-.96.59-1.8,1.34-2.55,2.2v-3.6h-11.99v48.67h12.58v-16.03c.66.69,1.39,1.28,2.19,1.77,2.16,1.34,4.76,2.02,7.81,2.02,3.26,0,6.23-.75,8.9-2.25,2.67-1.5,4.79-3.64,6.35-6.41,1.57-2.78,2.35-6.06,2.35-9.85s-.78-7.07-2.35-9.82c-1.57-2.76-3.69-4.89-6.35-6.41h0ZM616.65,91.88c-.69,1.28-1.59,2.25-2.71,2.91-1.12.66-2.4.99-3.81.99s-2.68-.33-3.81-.99c-1.12-.66-2.03-1.63-2.71-2.91-.69-1.28-1.02-2.82-1.02-4.63s.34-3.35,1.02-4.63c.69-1.28,1.59-2.25,2.71-2.91,1.12-.66,2.4-.99,3.81-.99s2.68.33,3.81.99c1.12.66,2.03,1.63,2.71,2.91.69,1.28,1.03,2.82,1.03,4.63s-.34,3.35-1.03,4.63Z"/>
              <path class="cls-3" d="M663.35,70.88c-2.91-1.43-6.14-2.15-9.66-2.15-3.76,0-7.13.78-10.13,2.35-3,1.57-5.35,3.75-7.05,6.55-1.7,2.8-2.55,5.98-2.55,9.56s.87,6.76,2.62,9.56c1.74,2.8,4.19,5,7.35,6.62,3.16,1.61,6.85,2.41,11.09,2.41,3.45,0,6.42-.5,8.94-1.49,2.52-.99,4.64-2.43,6.36-4.33l-6.62-6.88c-1.24,1.06-2.48,1.84-3.74,2.35-1.26.51-2.77.76-4.53.76-1.9,0-3.53-.34-4.9-1.03-1.37-.69-2.42-1.66-3.14-2.94-.31-.54-.55-1.15-.72-1.79h26.04c.04-.48.09-1.01.13-1.59.04-.57.07-1.08.07-1.52,0-3.97-.86-7.34-2.58-10.12-1.73-2.78-4.04-4.88-6.96-6.31h0ZM646.44,83.81c.15-.85.39-1.64.75-2.35.62-1.21,1.49-2.15,2.62-2.81,1.12-.66,2.44-.99,3.94-.99s2.81.33,3.94.99c1.12.66,2,1.59,2.64,2.78.38.71.63,1.51.77,2.38h-14.66,0Z"/>
              <path class="cls-3" d="M714.39,69.33h-13.3l-6.61,9.06-6.37-9.06h-14.17l13.27,17.91-13.66,17.94h13.63l6.87-9.38,6.44,9.38h14.37l-13.71-18.37,13.24-17.48Z"/>
              <path class="cls-3" d="M730.41,94.36c-.39-.93-.93-1.75-1.63-2.46-.7-.71-1.52-1.25-2.47-1.64-.95-.39-1.98-.58-3.08-.58s-2.13.19-3.08.59c-.95.4-1.77.95-2.48,1.67-.71.71-1.26,1.54-1.66,2.48-.39.94-.59,1.96-.59,3.04s.2,2.1.59,3.05c.39.94.93,1.77,1.64,2.48.71.71,1.53,1.27,2.47,1.67.94.4,1.96.59,3.07.59s2.12-.19,3.07-.59c.94-.4,1.77-.95,2.48-1.67.71-.71,1.27-1.55,1.67-2.49.39-.95.59-1.97.59-3.07s-.2-2.12-.59-3.05ZM728.76,99.84c-.27.67-.65,1.25-1.12,1.76l-1.77-2.72c.16-.09.32-.17.46-.28.67-.52,1-1.28,1-2.28,0-.94-.33-1.69-1-2.24-.67-.55-1.61-.83-2.81-.83h-3.82v8.42h2.71v-2.29h1.03l1.49,2.29h2.66s-.06.09-.1.12c-.54.55-1.17.99-1.91,1.3-.72.32-1.52.48-2.39.48s-1.65-.15-2.39-.46c-.73-.31-1.37-.74-1.91-1.29-.53-.55-.95-1.2-1.24-1.95-.3-.75-.45-1.55-.45-2.4s.15-1.67.45-2.4c.29-.73.71-1.38,1.26-1.94.54-.56,1.18-.99,1.92-1.3.73-.31,1.53-.46,2.4-.46s1.69.15,2.41.45c.73.3,1.36.73,1.89,1.27.52.54.94,1.19,1.24,1.93.29.74.44,1.55.44,2.41s-.15,1.67-.45,2.43v-.02ZM722.42,97.44v-2.25h.95c.4,0,.71.09.93.29.23.19.35.47.35.84s-.12.63-.35.83c-.22.19-.53.3-.93.3h-.95Z"/>
              <path class="cls-3" d="M526.71,101.68c-1.43,0-2.59-1.16-2.59-2.59v-2.11c0-1.43,1.16-2.59,2.59-2.59.89,0,1.62-.73,1.62-1.62v-.25c0-.89-.73-1.62-1.62-1.62-1.43,0-2.59-1.16-2.59-2.59v-2.14c0-1.43,1.16-2.59,2.59-2.59.89,0,1.62-.73,1.62-1.62v-.25c0-.89-.73-1.62-1.62-1.62-1.43,0-2.59-1.16-2.59-2.59v-2.13c0-1.43,1.16-2.59,2.59-2.59.89,0,1.62-.73,1.62-1.62v-.25c0-.89-.73-1.62-1.62-1.62h-6.53v35.84h6.53c.89,0,1.62-.73,1.62-1.62v-.25c0-.89-.73-1.62-1.62-1.62v.03Z"/>
              <path class="cls-3" d="M531.59,69.33v2.9c0,1.38-1.12,2.49-2.49,2.49h-.19c-.84,0-1.53.69-1.53,1.53v.44c0,.84.69,1.53,1.53,1.53h.19c1.38,0,2.49,1.12,2.49,2.49v2.33c0,1.38-1.12,2.49-2.49,2.49h-.19c-.84,0-1.53.69-1.53,1.53v.44c0,.84.69,1.53,1.53,1.53,1.48,0,2.68,1.2,2.68,2.68v2.12c0,1.38-1.12,2.49-2.49,2.49h-.19c-.84,0-1.53.69-1.53,1.53v.44c0,.84.69,1.53,1.53,1.53h.19c1.38,0,2.49,1.12,2.49,2.49v2.88h3.95v-35.83h-3.96Z"/>
            </g>
          </g>
        </g>
      </g>
      <path class="cls-4" d="M745,130H15c-8.27,0-15-6.73-15-15V15C0,6.73,6.73,0,15,0h730c8.27,0,15,6.73,15,15v100c0,8.27-6.73,15-15,15ZM15,5c-5.51,0-10,4.49-10,10v100c0,5.51,4.49,10,10,10h730c5.51,0,10-4.49,10-10V15c0-5.51-4.49-10-10-10H15Z"/>
    </g>
  </g>
</svg>