<?xml version="1.0" encoding="UTF-8"?>
<svg id="Layer_2" data-name="Layer 2" xmlns="http://www.w3.org/2000/svg" viewBox="0 0 158.04 200">
  <defs>
    <style>
      .cls-1 {
        fill: #fff;
      }

      .cls-1, .cls-2, .cls-3 {
        fill-rule: evenodd;
      }

      .cls-2 {
        fill: #575e75;
      }

      .cls-3 {
        fill: #0052a1;
      }
    </style>
  </defs>
  <g id="Layer_1-2" data-name="Layer 1">
    <g>
      <path class="cls-2" d="M152.76,28.12L82.12.59c-1.97-.79-4.16-.79-6.12,0L5.36,28.12C2.1,29.34-.04,32.48,0,35.97v64.61C0,141.9,37.8,176.7,73.59,198.45c3.33,2.07,7.53,2.07,10.86,0,35.78-21.75,73.59-56.55,73.59-97.87V35.97c.05-3.47-2.05-6.59-5.28-7.85h0Z"/>
      <path class="cls-1" d="M147.55,100.58c0,16.23-6.9,31.31-17.09,44.71-13.4,17.62-32.57,32.3-48.97,42.63-2.49,1.56-2.39,1.55-4.86,0-16.44-10.33-35.56-25.01-48.97-42.63-10.19-13.4-17.09-28.49-17.09-44.71v-61.72c.03-.91.63-1.71,1.49-2L78.32,11.07c.47-.19,1-.19,1.48,0l66.4,25.9c.79.32,1.31,1.08,1.34,1.94v61.67Z"/>
      <path class="cls-3" d="M14.74,40.3v60.28c0,15.22,6.51,29.47,16.22,42.19,13.16,17.29,31.88,31.6,48.1,41.78,16.22-10.18,34.94-24.5,48.09-41.78,9.66-12.73,16.22-26.99,16.22-42.19v-60.28S79.06,15.22,79.06,15.22L14.74,40.3Z"/>
      <path class="cls-1" d="M123.14,59.37c3.24,3.42,3.1,8.84-.31,12.09l-55.02,52.5c-1.76,1.62-4.11,2.44-6.49,2.27-2.38-.16-4.59-1.31-6.11-3.16l-20.74-26.23c-2.91-3.7-2.28-9.06,1.42-11.98,3.69-2.92,9.05-2.29,11.96,1.41l14.94,18.88,48.25-46.08c3.45-3.2,8.8-3.06,12.09.3Z"/>
    </g>
  </g>
</svg>