<?xml version="1.0" encoding="UTF-8"?>
<svg id="Layer_2" data-name="Layer 2" xmlns="http://www.w3.org/2000/svg" viewBox="0 0 199.83 200">
  <defs>
    <style>
      .cls-1 {
        fill: #575e75;
      }

      .cls-2 {
        fill: #0052a1;
      }
    </style>
  </defs>
  <g id="Layer_1-2" data-name="Layer 1">
    <g>
      <path class="cls-2" d="M159.93,94.75h34.47v-30.87c0-6-4.85-10.86-10.85-10.86h-72.29c-2.07,32.65-29.19,58.59-62.3,58.59-12.56,0-24.2-3.71-33.97-10.15v76.75c0,12,9.7,21.79,21.76,21.79h146.8c6,0,10.85-4.86,10.85-10.86v-27.15h-34.47c-18.48,0-33.54-15.08-33.54-33.59s15.06-33.65,33.54-33.65ZM178.06,36.66v-10.94c0-6-4.85-10.86-10.85-10.86h-65.87c4.28,6.5,7.35,13.86,8.92,21.8h67.8Z"/>
      <path class="cls-1" d="M48.96,0C21.91,0,0,21.94,0,48.95s21.91,49.01,48.96,49.01,48.95-21.93,48.95-49.01c-.07-27.01-21.98-48.95-48.95-48.95ZM46.53,39.59l11.06,5.71c6.57,3.43,10.14,10.36,8.92,17.79-.92,5.72-4.56,10.29-9.56,12.51v1.5c0,3.79-3.07,6.79-6.78,6.79s-6.78-3.08-6.78-6.79v-1.07c-5.28-1.79-9.78-5.72-12.13-11.08-1.5-3.43.07-7.43,3.5-8.93,3.49-1.5,7.42.07,8.92,3.5,1.14,2.57,3.78,4.22,6.56,3.93,2.14-.36,2.64-1.5,2.79-2.5.07-.57.21-2.5-1.72-3.5l-11.06-5.72c-6.64-3.43-10.2-10.72-8.85-18.15,1.29-6.5,5.85-11.43,11.99-13.07v-2.72c0-3.79,3.07-6.79,6.78-6.79s6.78,3.08,6.78,6.79v4.22c4.28,2.07,7.71,5.5,9.71,10,1.5,3.43-.08,7.43-3.5,8.93-3.5,1.5-7.49-.07-8.99-3.5-1.07-2.57-3.79-4.14-6.57-3.93-2,.22-2.57,1.72-2.71,2.57-.14.72-.29,2.51,1.64,3.51ZM197.11,108.32h-37.18c-10.99,0-19.91,8.94-19.91,19.94s8.92,19.94,19.91,19.94h37.18c1.5,0,2.72-1.22,2.72-2.72v-34.51c0-1.43-1.22-2.65-2.72-2.65ZM164.5,136.48c-4.5,0-8.14-3.65-8.14-8.15s3.64-8.14,8.14-8.14,8.14,3.64,8.14,8.14-3.64,8.15-8.14,8.15Z"/>
    </g>
  </g>
</svg>